<svg width="29" height="22" viewBox="0 0 29 22" fill="none" xmlns="http://www.w3.org/2000/svg">
<path d="M13.44 0.799999L7.36 10.64C8.85333 10.7467 10.08 11.3333 11.04 12.4C12.0533 13.4667 12.56 14.7733 12.56 16.32C12.56 17.9733 11.9733 19.3333 10.8 20.4C9.68 21.4133 8.32 21.92 6.72 21.92C5.06667 21.92 3.65333 21.4133 2.48 20.4C1.36 19.3333 0.8 17.8933 0.8 16.08C0.8 14.4267 1.38667 12.56 2.56 10.48C3.78667 8.4 5.78667 5.44 8.56 1.6L9.12 0.799999H13.44ZM28.72 0.799999L22.64 10.64C24.1333 10.7467 25.36 11.3333 26.32 12.4C27.3333 13.4667 27.84 14.7733 27.84 16.32C27.84 17.9733 27.2533 19.3333 26.08 20.4C24.96 21.4133 23.6267 21.92 22.08 21.92C20.4267 21.92 19.0133 21.4133 17.84 20.4C16.6667 19.3333 16.08 17.8933 16.08 16.08C16.08 14.4267 16.6933 12.56 17.92 10.48C19.1467 8.4 21.12 5.44 23.84 1.6L24.4 0.799999H28.72Z" fill="#FCFCFD"/>
</svg>
