<svg width="24" height="24" viewBox="0 0 24 24" fill="none" xmlns="http://www.w3.org/2000/svg"> <g clip-path="url(#clip0_181959_1327)"> <path d="M12.0093 4.34305e-06C5.38144 -0.00557378 0.00558247 5.36288 4.34305e-06 11.9907C-0.00557378 18.6186 5.36288 23.9944 11.9907 24C18.6177 23.9944 23.9898 18.627 24 12C24 5.37586 18.6334 0.00558247 12.0093 4.34305e-06ZM11.9907 22.0031C6.46627 22.0031 1.98764 17.5245 1.98764 12C1.98764 6.47555 6.46627 1.99693 11.9907 1.99693C17.5133 2.0025 21.9882 6.47743 21.9938 12C21.9938 17.5245 17.5152 22.0031 11.9907 22.0031Z" fill="#333"/> <path d="M15.2325 11.415C16.035 10.9627 16.4687 10.0571 16.3192 9.14874C16.1334 7.74629 14.4616 7.21684 13.1427 7.10541V4.99707H11.8424V7.08685H10.9694V4.99707H9.66904V7.08685H7.0498V8.43362H8.02504C8.46159 8.43362 8.6752 8.56365 8.6752 8.91657V14.703C8.6752 15.1859 8.4337 15.3346 8.17363 15.3346H7.17984V16.7092H9.70616V18.8454H11.0158V16.7092H11.8888V18.8454H13.1613V16.7092H13.4399C16.1148 16.7092 17.0065 15.3996 17.0065 13.6163C16.9851 12.5649 16.256 11.6602 15.2325 11.415ZM10.9693 8.5172H11.8981C12.5482 8.5172 13.83 8.62866 13.83 9.68748C13.8746 10.3785 13.3739 10.9841 12.6876 11.0714H10.9693V8.5172ZM12.4089 15.2045V15.1952H10.9693V12.4088H12.6411C13.0312 12.4088 14.4987 12.5388 14.4987 13.5791C14.4987 14.6193 13.8021 15.2045 12.4089 15.2045Z" fill="#333"/> </g> <defs> <clipPath id="clip0_181959_1327"> <rect width="24" height="24" fill="white"/> </clipPath> </defs> </svg>
