<svg width="24" height="24" viewBox="0 0 24 24" fill="none" xmlns="http://www.w3.org/2000/svg"> <g clip-path="url(#clip0_181945_6104)"> <path d="M8.5296 15.4752C8.33793 15.2835 8.15793 15.0735 7.99543 14.8519C7.7246 14.4802 7.80626 13.9585 8.17876 13.6877C8.55043 13.4169 9.07126 13.4985 9.34293 13.8702C9.45043 14.0185 9.57126 14.161 9.7071 14.296C10.3763 14.9652 11.2654 15.3335 12.2113 15.3335C13.1571 15.3335 14.0471 14.9652 14.7154 14.296L19.2988 9.71271C20.6796 8.33188 20.6796 6.08438 19.2988 4.70355C17.9179 3.32271 15.6704 3.32271 14.2896 4.70355L13.4079 5.58521C13.0821 5.91105 12.5554 5.91105 12.2296 5.58521C11.9038 5.25938 11.9038 4.73271 12.2296 4.40688L13.1113 3.52521C15.1421 1.49355 18.4463 1.49355 20.4771 3.52521C22.5079 5.55605 22.5079 8.86021 20.4771 10.891L15.8938 15.4744C14.9104 16.4585 13.6021 17.0002 12.2113 17.0002C10.8204 17.0002 9.5121 16.4585 8.5296 15.4752ZM7.21126 22.0002C8.60293 22.0002 9.91043 21.4585 10.8938 20.4744L11.7754 19.5927C12.1013 19.2677 12.1013 18.7402 11.7754 18.4144C11.4504 18.0885 10.9229 18.0894 10.5971 18.4144L9.7146 19.296C9.04543 19.9652 8.15626 20.3335 7.21043 20.3335C6.2646 20.3335 5.37543 19.9652 4.70626 19.296C4.0371 18.6269 3.66876 17.7377 3.66876 16.7919C3.66876 15.846 4.0371 14.956 4.70626 14.2877L9.2896 9.70438C9.95876 9.03521 10.8479 8.66688 11.7938 8.66688C12.7396 8.66688 13.6296 9.03521 14.2979 9.70438C14.4313 9.83855 14.5529 9.98105 14.6613 10.1294C14.9313 10.5019 15.4521 10.5852 15.8254 10.3135C16.1979 10.0427 16.2804 9.52188 16.0096 9.14938C15.8513 8.93105 15.6721 8.72188 15.4771 8.52688C14.4929 7.54188 13.1846 7.00021 11.7938 7.00021C10.4029 7.00021 9.0946 7.54188 8.11126 8.52605L3.52876 13.1094C2.5446 14.0927 2.00293 15.401 2.00293 16.7919C2.00293 18.1827 2.5446 19.491 3.52876 20.4744C4.5121 21.4585 5.8196 22.0002 7.21126 22.0002Z" fill="#333"/> </g> <defs> <clipPath id="clip0_181945_6104"> <rect width="20" height="20" fill="white" transform="translate(2 2)"/> </clipPath> </defs> </svg>
