<svg width="24" height="24" viewBox="0 0 24 24" fill="none" xmlns="http://www.w3.org/2000/svg"> <g clip-path="url(#clip0_181959_4092)"> <mask id="mask0_181959_4092" style="mask-type:luminance" maskUnits="userSpaceOnUse" x="0" y="0" width="24" height="24"> <path d="M0 3.8147e-06H24V24H0V3.8147e-06Z" fill="white"/> </mask> <g mask="url(#mask0_181959_4092)"> <path d="M8.05207 14.3906C8.23703 13.0308 9.19357 13.0041 9.71725 13.0041H12.918C15.5039 13.0041 19.263 11.3512 19.263 6.61537V4.91897C19.263 2.32711 17.1472 0.703219 14.5613 0.703219H9.71725C6.00696 0.748641 5.72486 0.677953 5.01564 5.41575L2.81688 19.7969C2.75144 20.2249 3.08196 20.6108 3.514 20.6108H6.33513C6.676 20.6108 6.96803 20.3665 7.02902 20.0304L8.05207 14.3906Z" stroke="#333" stroke-width="2" stroke-miterlimit="10" stroke-linecap="round" stroke-linejoin="round"/> <path d="M11.3416 17.8314C11.5042 16.6365 12.3446 16.6131 12.8048 16.6131H15.6171C17.8893 16.6131 21.1922 15.1608 21.1922 10.9995V9.50897C21.1922 7.2316 19.3332 5.80477 17.0611 5.80477H12.8048C9.54464 5.84461 9.29677 5.78255 8.67361 9.94547L6.74166 22.5817C6.68414 22.9578 6.97453 23.2969 7.35418 23.2969H9.83297C10.1325 23.2969 10.3891 23.0822 10.4427 22.7869L11.3416 17.8314Z" stroke="#333" stroke-width="2" stroke-miterlimit="10" stroke-linecap="round" stroke-linejoin="round"/> </g> </g> <defs> <clipPath id="clip0_181959_4092"> <rect width="24" height="24" fill="white"/> </clipPath> </defs> </svg>
