<svg width="24" height="24" viewBox="0 0 24 24" fill="none" xmlns="http://www.w3.org/2000/svg"> <g clip-path="url(#clip0_181945_7651)"> <path d="M24 24H12C5.383 24 0 18.617 0 12C0 5.383 5.383 0 12 0C18.617 0 24 5.383 24 12V24ZM12 2C6.486 2 2 6.486 2 12C2 17.514 6.486 22 12 22H22V12C22 6.486 17.514 2 12 2ZM18.55 13.75C18.082 13.75 17.632 13.562 17.346 13.246L16.926 12.783L16 13.623L16.42 14.085C16.947 14.666 17.724 14.999 18.55 14.999C19.571 14.999 20.43 14.346 20.59 13.447C20.711 12.769 20.404 11.885 19.182 11.433C18.524 11.19 17.925 10.927 17.91 10.927C17.767 10.83 17.772 10.684 17.78 10.625C17.792 10.546 17.849 10.352 18.142 10.264C18.799 10.068 19.407 10.543 19.432 10.563L19.908 10.962L20.713 10.005L20.234 9.603C20.189 9.565 19.099 8.669 17.782 9.066C17.111 9.268 16.636 9.797 16.543 10.446C16.456 11.056 16.721 11.643 17.32 12.025C17.32 12.025 17.998 12.328 18.75 12.605C18.909 12.664 19.422 12.881 19.36 13.226C19.314 13.482 18.999 13.747 18.55 13.747V13.75ZM5.838 13.784C5.37 13.784 4.92 13.596 4.634 13.28L4.214 12.817L3.288 13.657L3.708 14.119C4.235 14.7 5.012 15.033 5.838 15.033C6.859 15.033 7.718 14.38 7.878 13.481C7.999 12.803 7.692 11.919 6.47 11.467C5.812 11.224 5.213 10.961 5.198 10.961C5.055 10.864 5.06 10.718 5.068 10.659C5.08 10.58 5.137 10.386 5.43 10.298C6.087 10.102 6.695 10.577 6.72 10.597L7.196 10.996L8.001 10.039L7.522 9.637C7.477 9.599 6.387 8.703 5.07 9.1C4.399 9.302 3.924 9.831 3.831 10.48C3.744 11.09 4.009 11.677 4.608 12.059C4.608 12.059 5.286 12.362 6.038 12.639C6.197 12.698 6.71 12.915 6.648 13.26C6.602 13.516 6.287 13.781 5.838 13.781V13.784ZM15 9H13.747L12 11L10.253 9H9V15H10.25L10.252 11.106L12 13L13.747 11.108V15H14.997L15 9Z" fill="#333"/> </g> <defs> <clipPath id="clip0_181945_7651"> <rect width="24" height="24" fill="white"/> </clipPath> </defs> </svg>
