<svg width="24" height="24" viewBox="0 0 24 24" fill="none" xmlns="http://www.w3.org/2000/svg"> <g clip-path="url(#clip0_181945_6717)"> <path d="M20.4852 3.5149C12.9434 -4.01097 0.010078 1.35135 0 12.0001V23.0625C0 23.5803 0.419715 24 0.937493 24H11.9999C22.6544 23.9888 28.0078 11.0519 20.4852 3.5149ZM11.9999 22.125H1.87499V12.0001C1.87499 6.41719 6.417 1.87518 11.9999 1.87518C25.4326 2.43153 25.4274 21.5713 11.9999 22.125ZM15.6211 11.976C15.2547 11.6106 14.6614 11.6111 14.2957 11.9773L13.6814 12.5924C13.3882 12.4119 12.9678 12.105 12.461 11.5995C11.9483 11.088 11.6384 10.6593 11.4576 10.361L12.0646 9.75311C12.4273 9.38993 12.4304 8.80264 12.0718 8.43552L8.82307 5.11056C8.64814 4.93154 8.40884 4.82987 8.15853 4.82828H8.15253C7.90438 4.82828 7.66621 4.92671 7.49043 5.10212L5.1503 7.4368C4.98816 7.59852 4.89085 7.81405 4.87674 8.04261C4.63065 12.4526 10.7221 19.1527 15.7341 19.1646C15.8167 19.1646 16.3187 19.0484 16.4784 18.8891L18.8495 16.5235C19.2137 16.1743 19.2136 15.5453 18.8495 15.1961L15.6211 11.976ZM15.442 17.2745C15.1484 17.2462 14.6657 17.1675 14.0496 16.953C13.0768 16.6142 11.5638 15.858 9.88103 14.1794C7.81222 12.043 7.00996 10.3345 6.76364 8.47578L8.14405 7.09856L10.0835 9.0836L9.66438 9.50337C9.42813 9.73999 9.33574 10.0845 9.42199 10.4075C9.47111 10.5916 9.78471 11.5782 11.1369 12.9269C12.488 14.2747 13.4528 14.5829 13.6325 14.631C13.9561 14.7176 14.3014 14.6249 14.5383 14.3878L14.9604 13.9652L16.8599 15.8599L15.442 17.2745Z" fill="#333"/> </g> <defs> <clipPath id="clip0_181945_6717"> <rect width="24" height="24" fill="white"/> </clipPath> </defs> </svg>
