<svg width="24" height="24" viewBox="0 0 24 24" fill="none" xmlns="http://www.w3.org/2000/svg"> <g clip-path="url(#clip0_181945_867)"> <path d="M10.0002 18.9998C10.0002 17.8998 10.9002 16.9998 12.0002 16.9998C13.1002 16.9998 14.0002 17.8998 14.0002 18.9998C14.0002 20.0998 13.1002 20.9998 12.0002 20.9998C10.9002 20.9998 10.0002 20.0998 10.0002 18.9998ZM23.6802 9.53977C24.0902 9.15977 24.1102 8.52977 23.7302 8.12977C20.7102 4.87977 16.4302 3.00977 12.0002 3.00977C7.57022 3.00977 3.29022 4.86977 0.270222 8.11977C-0.109778 8.52977 -0.0797783 9.15977 0.320222 9.52977C0.720222 9.90977 1.36022 9.87977 1.73022 9.47977C4.37022 6.62977 8.11022 4.99977 12.0002 4.99977C15.8902 4.99977 19.6202 6.62977 22.2702 9.47977C22.4702 9.68977 22.7302 9.79977 23.0002 9.79977C23.2402 9.79977 23.4902 9.70977 23.6802 9.52977V9.53977ZM18.6702 14.3498C19.0802 13.9698 19.1002 13.3398 18.7202 12.9398C16.9902 11.0698 14.5402 9.99977 12.0002 9.99977C9.46022 9.99977 7.01022 11.0698 5.28022 12.9398C4.90022 13.3398 4.93022 13.9798 5.33022 14.3498C5.73022 14.7298 6.37022 14.6998 6.74022 14.2998C8.09022 12.8398 10.0102 12.0098 12.0002 12.0098C13.9902 12.0098 15.9002 12.8498 17.2602 14.2998C17.4602 14.5098 17.7202 14.6198 17.9902 14.6198C18.2302 14.6198 18.4802 14.5298 18.6702 14.3498Z" fill="#333"/> </g> <defs> <clipPath id="clip0_181945_867"> <rect width="24" height="24" fill="white"/> </clipPath> </defs> </svg>
