<svg width="30" height="30" viewBox="0 0 30 30" fill="none" xmlns="http://www.w3.org/2000/svg">
<path d="M0.536509 16.5274L24.045 16.5274L9.97446 28.7417C9.74946 28.9386 9.88606 29.3042 10.1834 29.3042L13.7392 29.3042C13.8959 29.3042 14.0445 29.2479 14.1611 29.1475L29.3445 15.9729C29.4836 15.8524 29.5951 15.7034 29.6716 15.536C29.748 15.3686 29.7876 15.1867 29.7876 15.0026C29.7876 14.8186 29.748 14.6367 29.6716 14.4693C29.5951 14.3019 29.4836 14.1529 29.3445 14.0323L14.0727 0.77741C14.0124 0.725178 13.9401 0.697053 13.8637 0.697053L10.1874 0.697052C9.89008 0.697052 9.75348 1.0667 9.97848 1.25955L24.045 13.4738L0.536509 13.4738C0.359724 13.4738 0.215081 13.6185 0.215081 13.7953L0.21508 16.206C0.21508 16.3828 0.359723 16.5274 0.536509 16.5274Z" fill="white"/>
</svg>
