<svg width="24" height="24" viewBox="0 0 24 24" fill="none" xmlns="http://www.w3.org/2000/svg">
<path d="M21.4513 16.6905L18.6578 13.897C17.6602 12.8994 15.9642 13.2985 15.5651 14.5954C15.2658 15.4933 14.2681 15.9922 13.3702 15.7926C11.3749 15.2938 8.68124 12.6998 8.18241 10.6048C7.88311 9.70683 8.48171 8.70917 9.3796 8.40991C10.6766 8.01084 11.0756 6.31482 10.078 5.31716L7.28452 2.52371C6.48639 1.82535 5.28919 1.82535 4.59083 2.52371L2.69528 4.41927C0.799721 6.41459 2.89481 11.7022 7.58381 16.3912C12.2728 21.0802 17.5604 23.2751 19.5557 21.2797L21.4513 19.3842C22.1497 18.586 22.1497 17.3889 21.4513 16.6905Z" fill="#0066E6"/>
</svg>
