<svg width="24" height="24" viewBox="0 0 24 24" fill="none" xmlns="http://www.w3.org/2000/svg">
<path d="M4.27845 15.2587L2.08218 11.6642C1.39523 10.5844 0.107481 11.4131 0.564745 12.388C0.884853 13.0523 2.15366 16.2123 3.10658 18.3085C3.79203 19.8163 4.06868 20.2028 5.27862 21.3026L7.11794 22.9745V23.5314M19.7215 15.2587L21.9177 11.6642C22.6047 10.5844 23.8924 11.4131 23.4352 12.388C23.115 13.0523 21.8462 16.2123 20.8933 18.3085C20.2079 19.8163 19.9312 20.2028 18.7213 21.3026L16.882 22.9745V23.5314M5.80713 19.0648C5.29446 18.2375 4.77298 17.1615 4.35664 16.1093C4.19787 15.7081 4.13572 15.2749 4.4756 14.9893C4.81545 14.7036 5.31809 14.7402 5.59254 15.0705C5.85555 15.387 7.41264 17.3442 7.67561 17.6608C9.12681 19.4074 11.715 19.8991 12 22.8764C12.2851 19.8991 14.8732 19.4074 16.3244 17.6608C16.5874 17.3443 18.1444 15.387 18.4075 15.0705C18.6819 14.7402 19.1845 14.7036 19.5244 14.9893C19.8643 15.275 19.8021 15.7081 19.6434 16.1093C19.227 17.1615 18.7055 18.2375 18.1929 19.0648" stroke="#ED7F22" stroke-width="1.2" stroke-miterlimit="22.9256" stroke-linecap="round" stroke-linejoin="round"/>
<path d="M12 22.876V23.5309" stroke="#ED7F22" stroke-width="0.937496" stroke-miterlimit="22.9256" stroke-linecap="round" stroke-linejoin="round"/>
<path fill-rule="evenodd" clip-rule="evenodd" d="M11.4999 0.757424C11.8093 0.578792 12.1905 0.578792 12.4999 0.757424L17.5891 3.69569C17.8985 3.87432 18.0891 4.20445 18.0891 4.56171V10.4382C18.0891 10.7955 17.8985 11.1256 17.5891 11.3043L12.4999 14.2425C12.1905 14.4212 11.8093 14.4212 11.4999 14.2425L6.41064 11.3043C6.10124 11.1256 5.91064 10.7955 5.91064 10.4382V4.56171C5.91064 4.20445 6.10124 3.87432 6.41065 3.69569L11.4999 0.757424Z" stroke="#ED7F22" stroke-width="1.2" stroke-miterlimit="22.9256" stroke-linecap="round" stroke-linejoin="round"/>
<path d="M17.7896 4.15723L11.9999 7.49992L6.21021 4.15723" stroke="#ED7F22" stroke-width="1.2" stroke-miterlimit="22.9256" stroke-linecap="round" stroke-linejoin="round"/>
<path d="M12 0.703125V14.2968" stroke="#ED7F22" stroke-width="1.2" stroke-miterlimit="22.9256" stroke-linecap="round" stroke-linejoin="round"/>
</svg>
