<svg width="24" height="24" viewBox="0 0 24 24" fill="none" xmlns="http://www.w3.org/2000/svg">
<g clip-path="url(#clip0_182551_13556)">
<path d="M20.9448 24.0195H3.05529C2.53726 24.0166 2.04128 23.8095 1.67497 23.4432C1.30866 23.0769 1.10157 22.5809 1.09863 22.0629V3.05529C1.10157 2.53726 1.30866 2.04128 1.67497 1.67497C2.04128 1.30866 2.53726 1.10157 3.05529 1.09863H6.40957C6.63197 1.09863 6.84526 1.18698 7.00253 1.34424C7.15979 1.50151 7.24814 1.7148 7.24814 1.9372C7.24814 2.1596 7.15979 2.3729 7.00253 2.53016C6.84526 2.68742 6.63197 2.77577 6.40957 2.77577H3.05529C2.98116 2.77577 2.91006 2.80522 2.85764 2.85764C2.80522 2.91006 2.77577 2.98116 2.77577 3.05529V22.0629C2.77577 22.137 2.80522 22.2081 2.85764 22.2605C2.91006 22.3129 2.98116 22.3424 3.05529 22.3424H20.9448C21.0189 22.3424 21.09 22.3129 21.1424 22.2605C21.1948 22.2081 21.2243 22.137 21.2243 22.0629V3.05529C21.2243 2.98116 21.1948 2.91006 21.1424 2.85764C21.09 2.80522 21.0189 2.77577 20.9448 2.77577H17.5905C17.3681 2.77577 17.1548 2.68742 16.9975 2.53016C16.8403 2.3729 16.7519 2.1596 16.7519 1.9372C16.7519 1.7148 16.8403 1.50151 16.9975 1.34424C17.1548 1.18698 17.3681 1.09863 17.5905 1.09863H20.9448C21.4628 1.10157 21.9588 1.30866 22.3251 1.67497C22.6914 2.04128 22.8985 2.53726 22.9014 3.05529V22.0629C22.8985 22.5809 22.6914 23.0769 22.3251 23.4432C21.9588 23.8095 21.4628 24.0166 20.9448 24.0195Z" fill="#ED7F22"/>
<path d="M6.96892 12.2795C6.76241 12.282 6.56263 12.2061 6.40987 12.0671L4.73274 10.58C4.56668 10.4318 4.46632 10.2236 4.45374 10.0013C4.44115 9.77907 4.51738 9.56091 4.66565 9.39485C4.81392 9.22879 5.02208 9.12843 5.24435 9.11585C5.46661 9.10327 5.68477 9.1795 5.85083 9.32777L6.96892 10.2781L9.2051 7.89661C9.36234 7.73957 9.57547 7.65137 9.79769 7.65137C10.0199 7.65137 10.233 7.73957 10.3903 7.89661C10.5473 8.05384 10.6355 8.26698 10.6355 8.4892C10.6355 8.71142 10.5473 8.92456 10.3903 9.08179L7.58387 12C7.50635 12.0867 7.41165 12.1563 7.30579 12.2044C7.19992 12.2525 7.0852 12.2781 6.96892 12.2795Z" fill="#ED7F22"/>
<path d="M18.7088 8.92518H13.1184C12.896 8.92518 12.6827 8.83684 12.5254 8.67957C12.3681 8.52231 12.2798 8.30902 12.2798 8.08662C12.2798 7.86421 12.3681 7.65092 12.5254 7.49366C12.6827 7.3364 12.896 7.24805 13.1184 7.24805H18.7088C18.9312 7.24805 19.1445 7.3364 19.3018 7.49366C19.459 7.65092 19.5474 7.86421 19.5474 8.08662C19.5474 8.30902 19.459 8.52231 19.3018 8.67957C19.1445 8.83684 18.9312 8.92518 18.7088 8.92518Z" fill="#ED7F22"/>
<path d="M16.4726 12.2797H13.1184C12.896 12.2797 12.6827 12.1913 12.5254 12.0341C12.3681 11.8768 12.2798 11.6635 12.2798 11.4411C12.2798 11.2187 12.3681 11.0054 12.5254 10.8482C12.6827 10.6909 12.896 10.6025 13.1184 10.6025H16.4726C16.695 10.6025 16.9083 10.6909 17.0656 10.8482C17.2229 11.0054 17.3112 11.2187 17.3112 11.4411C17.3112 11.6635 17.2229 11.8768 17.0656 12.0341C16.9083 12.1913 16.695 12.2797 16.4726 12.2797Z" fill="#ED7F22"/>
<path d="M6.96892 20.1062C6.76241 20.1087 6.56263 20.0327 6.40987 19.8938L4.73274 18.4067C4.56668 18.2584 4.46632 18.0503 4.45374 17.828C4.44115 17.6057 4.51738 17.3876 4.66565 17.2215C4.81392 17.0555 5.02208 16.9551 5.24435 16.9425C5.46661 16.9299 5.68477 17.0062 5.85083 17.1544L6.96892 18.1048L9.2051 15.7233C9.36234 15.5662 9.57547 15.478 9.79769 15.478C10.0199 15.478 10.233 15.5662 10.3903 15.7233C10.5473 15.8805 10.6355 16.0936 10.6355 16.3159C10.6355 16.5381 10.5473 16.7512 10.3903 16.9084L7.58387 19.8267C7.50635 19.9134 7.41165 19.983 7.30579 20.0311C7.19992 20.0792 7.0852 20.1048 6.96892 20.1062Z" fill="#ED7F22"/>
<path d="M18.7088 16.7518H13.1184C12.896 16.7518 12.6827 16.6635 12.5254 16.5062C12.3681 16.349 12.2798 16.1357 12.2798 15.9133C12.2798 15.6909 12.3681 15.4776 12.5254 15.3203C12.6827 15.1631 12.896 15.0747 13.1184 15.0747H18.7088C18.9312 15.0747 19.1445 15.1631 19.3018 15.3203C19.459 15.4776 19.5474 15.6909 19.5474 15.9133C19.5474 16.1357 19.459 16.349 19.3018 16.5062C19.1445 16.6635 18.9312 16.7518 18.7088 16.7518Z" fill="#ED7F22"/>
<path d="M16.4726 20.1063H13.1184C12.896 20.1063 12.6827 20.018 12.5254 19.8607C12.3681 19.7035 12.2798 19.4902 12.2798 19.2678C12.2798 19.0454 12.3681 18.8321 12.5254 18.6748C12.6827 18.5175 12.896 18.4292 13.1184 18.4292H16.4726C16.695 18.4292 16.9083 18.5175 17.0656 18.6748C17.2229 18.8321 17.3112 19.0454 17.3112 19.2678C17.3112 19.4902 17.2229 19.7035 17.0656 19.8607C16.9083 20.018 16.695 20.1063 16.4726 20.1063Z" fill="#ED7F22"/>
<path d="M16.4722 5.01188H7.52746C7.00943 5.00895 6.51345 4.80186 6.14714 4.43555C5.78083 4.06924 5.57374 3.57325 5.5708 3.05522V1.93713C5.57374 1.4191 5.78083 0.923115 6.14714 0.556805C6.51345 0.190494 7.00943 -0.0165961 7.52746 -0.0195312H16.4722C16.9902 -0.0165961 17.4862 0.190494 17.8525 0.556805C18.2188 0.923115 18.4259 1.4191 18.4289 1.93713V3.05522C18.4259 3.57325 18.2188 4.06924 17.8525 4.43555C17.4862 4.80186 16.9902 5.00895 16.4722 5.01188ZM7.52746 1.65761C7.45333 1.65761 7.38223 1.68706 7.32981 1.73948C7.27739 1.7919 7.24794 1.863 7.24794 1.93713V3.05522C7.24794 3.12936 7.27739 3.20045 7.32981 3.25287C7.38223 3.3053 7.45333 3.33474 7.52746 3.33474H16.4722C16.5463 3.33474 16.6174 3.3053 16.6699 3.25287C16.7223 3.20045 16.7517 3.12936 16.7517 3.05522V1.93713C16.7517 1.863 16.7223 1.7919 16.6699 1.73948C16.6174 1.68706 16.5463 1.65761 16.4722 1.65761H7.52746Z" fill="#ED7F22"/>
</g>
<defs>
<clipPath id="clip0_182551_13556">
<rect width="24" height="24" fill="white"/>
</clipPath>
</defs>
</svg>
