<svg width="24" height="24" viewBox="0 0 24 24" fill="none" xmlns="http://www.w3.org/2000/svg">
<g clip-path="url(#clip0_182551_13746)">
<path d="M18.448 17.8137C18.448 18.1603 18.3232 18.4585 18.0736 18.7081C17.8379 18.9438 17.5467 19.0617 17.2 19.0617C16.9365 19.0617 16.7008 18.9923 16.4928 18.8537C16.2848 18.7011 16.1392 18.507 16.056 18.2713L15.328 16.2745H8.672L7.944 18.2713C7.8608 18.507 7.7152 18.7011 7.5072 18.8537C7.2992 18.9923 7.06347 19.0617 6.8 19.0617C6.45334 19.0617 6.1552 18.9438 5.9056 18.7081C5.66987 18.4585 5.552 18.1603 5.552 17.8137C5.552 17.7582 5.58667 17.6126 5.656 17.3769L10.0032 6.31128C10.1696 5.89528 10.4331 5.56248 10.7936 5.31288C11.1541 5.06328 11.5563 4.93848 12 4.93848C12.4437 4.93848 12.8459 5.06328 13.2064 5.31288C13.5669 5.56248 13.8304 5.89528 13.9968 6.31128L18.344 17.3769C18.4133 17.6126 18.448 17.7582 18.448 17.8137ZM9.4416 14.1321H14.5584L12 7.12248L9.4416 14.1321Z" fill="#ED7F22"/>
<rect x="0.9" y="0.9" width="22.2" height="22.2" rx="3.9" stroke="#ED7F22" stroke-width="1.8"/>
</g>
<defs>
<clipPath id="clip0_182551_13746">
<rect width="24" height="24" fill="white"/>
</clipPath>
</defs>
</svg>
