<svg width="24" height="24" viewBox="0 0 24 24" fill="none" xmlns="http://www.w3.org/2000/svg">
<g clip-path="url(#clip0_182551_13803)">
<path fill-rule="evenodd" clip-rule="evenodd" d="M15 4H19C20.3256 4.00159 21.5964 4.52888 22.5338 5.46622C23.4711 6.40356 23.9984 7.67441 24 9V19C23.9984 20.3256 23.4711 21.5964 22.5338 22.5338C21.5964 23.4711 20.3256 23.9984 19 24H5C3.67441 23.9984 2.40356 23.4711 1.46622 22.5338C0.528882 21.5964 0.00158786 20.3256 0 19V9C0.00158786 7.67441 0.528882 6.40356 1.46622 5.46622C2.40356 4.52888 3.67441 4.00159 5 4H9V3C9 2.20435 9.31607 1.44129 9.87868 0.87868C10.4413 0.31607 11.2044 0 12 0C12.7956 0 13.5587 0.31607 14.1213 0.87868C14.6839 1.44129 15 2.20435 15 3V4ZM21.4093 21.5511C21.9719 20.9885 22.4973 19.7956 22.4973 19C22.4973 19 22.5338 9.79565 22.5338 9C22.5338 8.20435 22.0315 7.07042 21.4689 6.50781C20.9063 5.9452 19.7956 5.50641 19 5.50641H14.8852C14.6816 6.09095 14.2318 7.09123 13.7273 7.44977C13.2227 7.80831 12.619 8.00095 12 8.00095C11.381 8.00095 10.7773 7.80831 10.2727 7.44977C9.76816 7.09123 9.20365 6.1507 9 5.56615H5C4.20435 5.56615 3.02074 5.9907 2.45813 6.55331C1.89552 7.11592 1.46622 8.20435 1.46622 9V19C1.46622 19.7956 2.07842 20.8231 2.64102 21.3857C3.20363 21.9483 4.20826 22.5195 5.00391 22.5195L19 22.5338C19.7956 22.5338 20.8467 22.1137 21.4093 21.5511ZM5 10H10C10.2652 10 10.5196 10.1054 10.7071 10.2929C10.8946 10.4804 11 10.7348 11 11V19C11 19.2652 10.8946 19.5196 10.7071 19.7071C10.5196 19.8946 10.2652 20 10 20H5C4.73478 20 4.48043 19.8946 4.29289 19.7071C4.10536 19.5196 4 19.2652 4 19V11C4 10.7348 4.10536 10.4804 4.29289 10.2929C4.48043 10.1054 4.73478 10 5 10ZM5.4557 18.5866H9.55531V11.4602H5.4557V18.5866ZM19.7071 15.7071C19.8946 15.5196 20 15.2652 20 15C20 14.7348 19.8946 14.4804 19.7071 14.2929C19.5196 14.1054 19.2652 14 19 14H14C13.7348 14 13.4804 14.1054 13.2929 14.2929C13.1054 14.4804 13 14.7348 13 15C13 15.2652 13.1054 15.5196 13.2929 15.7071C13.4804 15.8946 13.7348 16 14 16H19C19.2652 16 19.5196 15.8946 19.7071 15.7071ZM19.7071 11.7071C19.8946 11.5196 20 11.2652 20 11C20 10.7348 19.8946 10.4804 19.7071 10.2929C19.5196 10.1054 19.2652 10 19 10H14C13.7348 10 13.4804 10.1054 13.2929 10.2929C13.1054 10.4804 13 10.7348 13 11C13 11.2652 13.1054 11.5196 13.2929 11.7071C13.4804 11.8946 13.7348 12 14 12H19C19.2652 12 19.5196 11.8946 19.7071 11.7071ZM17.7071 19.7071C17.8946 19.5196 18 19.2652 18 19C18 18.7348 17.8946 18.4804 17.7071 18.2929C17.5196 18.1054 17.2652 18 17 18H14C13.7348 18 13.4804 18.1054 13.2929 18.2929C13.1054 18.4804 13 18.7348 13 19C13 19.2652 13.1054 19.5196 13.2929 19.7071C13.4804 19.8946 13.7348 20 14 20H17C17.2652 20 17.5196 19.8946 17.7071 19.7071ZM12.0001 6.43767C12.9734 6.43767 13.7625 5.30566 13.7625 3.90924C13.7625 2.51283 12.9734 1.38081 12.0001 1.38081C11.0268 1.38081 10.2378 2.51283 10.2378 3.90924C10.2378 5.30566 11.0268 6.43767 12.0001 6.43767Z" fill="#ED7F22"/>
</g>
<defs>
<clipPath id="clip0_182551_13803">
<rect width="24" height="24" fill="white"/>
</clipPath>
</defs>
</svg>
