<svg width="24" height="24" viewBox="0 0 24 24" fill="none" xmlns="http://www.w3.org/2000/svg">
<path d="M23.3807 7.55283C22.5583 6.73036 21.2201 6.73041 20.3974 7.55302C20.1443 7.80628 18.5288 9.42314 18.282 9.67017V4.09809C18.282 3.53466 18.0626 3.00497 17.6641 2.60658L15.6755 0.617813C15.2771 0.219375 14.7473 0 14.1839 0H2.11011C0.946998 0 0.000732422 0.946266 0.000732422 2.10938V21.8906C0.000732422 23.0537 0.946998 24 2.11011 24H16.1726C17.3357 24 18.282 23.0537 18.282 21.8906V15.639L23.3807 10.536C24.2051 9.71161 24.2052 8.37727 23.3807 7.55283ZM14.0633 1.40625C14.1961 1.40625 14.4521 1.38323 14.6811 1.61217L16.6698 3.60094C16.8929 3.82411 16.8758 4.06866 16.8758 4.21875H14.0633V1.40625ZM16.8757 21.8906C16.8757 22.2783 16.5604 22.5938 16.1726 22.5938H2.11011C1.7224 22.5938 1.40698 22.2783 1.40698 21.8906V2.10938C1.40698 1.72167 1.7224 1.40625 2.11011 1.40625H12.657V4.92188C12.657 5.31019 12.9718 5.625 13.3601 5.625H16.8757V11.0776C16.8757 11.0776 14.8013 13.1538 14.8012 13.1539L13.8073 14.1478C13.7302 14.225 13.672 14.3191 13.6375 14.4226L12.6431 17.4058C12.5588 17.6584 12.6246 17.937 12.8129 18.1253C13.0015 18.3139 13.2802 18.3793 13.5325 18.2952L16.5156 17.3008C16.6191 17.2663 16.7133 17.2081 16.7904 17.1309L16.8757 17.0456V21.8906ZM15.2989 14.645L16.2932 15.6394L15.9134 16.0192L14.4219 16.5164L14.919 15.0248L15.2989 14.645ZM17.2874 14.6448L16.293 13.6504C16.8225 13.1205 19.1742 10.7668 19.673 10.2676L20.6673 11.262L17.2874 14.6448ZM22.3861 9.54178L21.6613 10.2672L20.6669 9.27286L21.392 8.54719C21.6663 8.27302 22.1123 8.27306 22.3864 8.54719C22.6605 8.82141 22.6619 9.26592 22.3861 9.54178Z" fill="#ED7F22"/>
</svg>
