<svg width="24" height="24" viewBox="0 0 24 24" fill="none" xmlns="http://www.w3.org/2000/svg">
<g clip-path="url(#clip0_182551_12865)">
<path fill-rule="evenodd" clip-rule="evenodd" d="M1.94026 5.39784C2.13305 4.96407 2.64098 4.76872 3.07475 4.96149L11.8936 8.88098L20.7125 4.96149C21.1462 4.76872 21.6541 4.96407 21.8469 5.39784C22.0398 5.83161 21.8444 6.33953 21.4106 6.53232L12.2427 10.6069C12.0205 10.7057 11.7668 10.7057 11.5446 10.6069L2.3766 6.53232C1.94283 6.33953 1.74747 5.83161 1.94026 5.39784Z" fill="#ED7F22"/>
<path fill-rule="evenodd" clip-rule="evenodd" d="M9.68278 0.695236C11.0903 0.0696869 12.697 0.0696869 14.1045 0.695236L19.8344 3.24187C21.8002 4.11555 23.067 6.06497 23.067 8.21615V16.01C23.067 18.1612 21.8002 20.1106 19.8344 20.9843L14.1045 23.5309C12.697 24.1565 11.0903 24.1565 9.68278 23.5309L3.95287 20.9843C1.9871 20.1106 0.720215 18.1612 0.720215 16.01V8.21615C0.720215 6.06497 1.98709 4.11555 3.95287 3.24187L9.68278 0.695236ZM13.4063 2.26606C12.4432 1.83805 11.344 1.83805 10.3809 2.26606L4.65102 4.8127C3.30601 5.41048 2.4392 6.74429 2.4392 8.21615V16.01C2.4392 17.482 3.30602 18.8157 4.65102 19.4135L10.3809 21.9601C11.344 22.3882 12.4432 22.3882 13.4063 21.9601L19.1363 19.4135C20.4812 18.8157 21.3481 17.482 21.3481 16.01V8.21615C21.3481 6.74429 20.4812 5.41048 19.1362 4.8127L13.4063 2.26606Z" fill="#ED7F22"/>
<path fill-rule="evenodd" clip-rule="evenodd" d="M11.8934 8.96191C12.3681 8.96191 12.7529 9.34673 12.7529 9.82141V22.4273C12.7529 22.9019 12.3681 23.2868 11.8934 23.2868C11.4188 23.2868 11.0339 22.9019 11.0339 22.4273V9.82141C11.0339 9.34673 11.4188 8.96191 11.8934 8.96191Z" fill="#ED7F22"/>
</g>
<defs>
<clipPath id="clip0_182551_12865">
<rect width="24" height="24" fill="white"/>
</clipPath>
</defs>
</svg>
