<svg width="24" height="24" viewBox="0 0 24 24" fill="none" xmlns="http://www.w3.org/2000/svg">
<g clip-path="url(#clip0_182551_13110)">
<path d="M22.2833 9.36225C21.852 9.04262 21.4844 8.64501 21.1995 8.19C21.0671 7.64211 21.0398 7.07405 21.1193 6.516C21.183 5.4705 21.2558 4.2855 20.4847 3.516C19.7137 2.7465 18.531 2.817 17.4847 2.88225C16.9264 2.96147 16.3581 2.93399 15.81 2.80125C15.355 2.51639 14.9574 2.1488 14.6378 1.7175C13.9335 0.91275 13.1355 0 12 0C10.8645 0 10.0665 0.91275 9.36225 1.71675C9.04262 2.14805 8.64501 2.51564 8.19 2.8005C7.6419 2.93328 7.07353 2.96051 6.51525 2.88075C5.472 2.81625 4.28625 2.74425 3.51525 3.51525C2.74425 4.28625 2.817 5.46975 2.8815 6.51525C2.96111 7.07358 2.93362 7.64196 2.8005 8.19C2.51564 8.64501 2.14805 9.04262 1.71675 9.36225C0.91275 10.0665 0 10.8645 0 12C0 13.1355 0.91275 13.9335 1.71675 14.6378C2.14805 14.9574 2.51564 15.355 2.8005 15.81C2.93297 16.3581 2.9602 16.9265 2.88075 17.4847C2.817 18.5295 2.74425 19.7145 3.51525 20.4847C4.28625 21.255 5.46525 21.1838 6.51525 21.1185C7.07358 21.0389 7.64196 21.0664 8.19 21.1995C8.64501 21.4844 9.04262 21.852 9.36225 22.2833C10.0665 23.0872 10.8645 24 12 24C13.1355 24 13.9335 23.0872 14.6378 22.2833C14.9574 21.852 15.355 21.4844 15.81 21.1995C16.3578 21.0666 16.926 21.0394 17.484 21.1193C18.528 21.1838 19.7138 21.2565 20.484 20.4847C21.2542 19.713 21.1822 18.5303 21.1178 17.4847C21.0381 16.9264 21.0656 16.358 21.1987 15.81C21.4836 15.355 21.8512 14.9574 22.2825 14.6378C23.0872 13.9335 24 13.1355 24 12C24 10.8645 23.0872 10.0665 22.2833 9.36225ZM21.2955 13.509C20.6788 13.966 20.1723 14.5554 19.8135 15.234C19.5766 15.9906 19.5111 16.7904 19.6215 17.5755C19.6665 18.3037 19.7175 19.1302 19.4242 19.4227C19.131 19.7153 18.3045 19.6642 17.5763 19.6208C16.7915 19.5105 15.992 19.5758 15.2355 19.812C14.5569 20.1708 13.9675 20.6773 13.5105 21.294C12.99 21.888 12.4545 22.5 12 22.5C11.5455 22.5 11.01 21.888 10.491 21.2955C10.034 20.6788 9.44456 20.1723 8.766 19.8135C8.31366 19.6446 7.83253 19.5664 7.35 19.5833C7.0425 19.5833 6.7305 19.6028 6.4215 19.6215C5.691 19.6665 4.866 19.7175 4.57425 19.4242C4.2825 19.131 4.33125 18.3053 4.37625 17.5763C4.48692 16.7915 4.42159 15.9919 4.185 15.2355C3.82617 14.5569 3.31975 13.9675 2.703 13.5105C2.112 12.99 1.5 12.4545 1.5 12C1.5 11.5455 2.112 11.01 2.7045 10.491C3.32125 10.034 3.82767 9.44456 4.1865 8.766C4.42335 8.0094 4.48894 7.20958 4.3785 6.4245C4.3335 5.69475 4.2825 4.86825 4.575 4.575C4.8675 4.28175 5.694 4.3335 6.423 4.377C7.20774 4.48881 8.00756 4.42346 8.76375 4.18575C9.44231 3.82692 10.0318 3.3205 10.4887 2.70375C11.01 2.112 11.5455 1.5 12 1.5C12.4545 1.5 12.99 2.112 13.509 2.7045C13.966 3.32125 14.5554 3.82767 15.234 4.1865C15.9906 4.4234 16.7904 4.48899 17.5755 4.3785C18.3045 4.33275 19.1302 4.28175 19.4227 4.57575C19.7153 4.86975 19.6657 5.69475 19.6208 6.42375C19.5101 7.20853 19.5754 8.0081 19.812 8.7645C20.1708 9.44306 20.6773 10.0325 21.294 10.4895C21.888 11.01 22.5 11.5455 22.5 12C22.5 12.4545 21.888 12.99 21.2955 13.509Z" fill="#ED7F22"/>
<path d="M6.92485 13.5388L6.24535 13.8561L5.9251 13.1758L6.60535 12.8593C6.78566 12.7752 6.92517 12.6229 6.99317 12.4359C7.06118 12.2489 7.05211 12.0425 6.96797 11.8622C6.88384 11.6819 6.73151 11.5424 6.54451 11.4744C6.35752 11.4064 6.15116 11.4154 5.97085 11.4996L4.6111 12.1341C4.4309 12.2182 4.29151 12.3705 4.22358 12.5574C4.15564 12.7444 4.16473 12.9506 4.24885 13.1308L5.2006 15.1716L6.15085 17.2086C6.23029 17.3708 6.36469 17.4997 6.53016 17.5722C6.69564 17.6447 6.88146 17.6562 7.0546 17.6046C7.15625 17.5726 7.24993 17.5194 7.32938 17.4483C7.40884 17.3773 7.47225 17.2902 7.5154 17.1928C7.55854 17.0954 7.58043 16.9898 7.57961 16.8833C7.57878 16.7767 7.55525 16.6716 7.5106 16.5748L6.8761 15.2151L7.55635 14.8978C7.73348 14.8118 7.86967 14.6595 7.93552 14.474C8.00136 14.2884 7.99157 14.0843 7.90826 13.9059C7.82495 13.7275 7.67481 13.589 7.49026 13.5203C7.3057 13.4516 7.10154 13.4583 6.92185 13.5388H6.92485Z" fill="#ED7F22"/>
<path d="M12.6609 13.7151L11.3146 12.8999C11.5669 12.5671 11.7004 12.1594 11.694 11.7418C11.6875 11.3243 11.5413 10.9209 11.2788 10.5961C11.0164 10.2713 10.6526 10.0438 10.2458 9.94979C9.83886 9.85582 9.41221 9.90083 9.03388 10.0776L8.01313 10.5524C7.92374 10.594 7.84344 10.6528 7.7768 10.7255C7.71017 10.7981 7.65852 10.8832 7.62481 10.9759C7.59109 11.0685 7.57597 11.1669 7.58032 11.2654C7.58466 11.3639 7.60838 11.4606 7.65013 11.5499L9.55213 15.6276C9.63294 15.7931 9.77077 15.9238 9.94025 15.9957C10.1097 16.0676 10.2995 16.0759 10.4746 16.0191C10.5736 15.9843 10.6642 15.9293 10.7407 15.8575C10.8172 15.7858 10.878 15.6989 10.9191 15.6024C10.9603 15.5059 10.9809 15.4019 10.9796 15.297C10.9784 15.1921 10.9553 15.0886 10.9119 14.9931L10.5324 14.1749L11.8816 14.9999C11.9986 15.0715 12.133 15.1093 12.2701 15.1094C12.4323 15.1058 12.5891 15.0502 12.7173 14.9507C12.8455 14.8513 12.9383 14.7133 12.9821 14.557C13.0259 14.4008 13.0183 14.2347 12.9604 14.0831C12.9026 13.9315 12.7976 13.8025 12.6609 13.7151ZM9.95338 11.4216C10.0227 11.4472 10.0829 11.4926 10.1264 11.5522C10.17 11.6119 10.195 11.683 10.1982 11.7568C10.2015 11.8306 10.183 11.9037 10.1449 11.9669C10.1068 12.0302 10.0509 12.0808 9.98413 12.1124L9.64363 12.2714L9.32713 11.5919L9.66838 11.4329C9.71276 11.4122 9.76082 11.4005 9.80975 11.3986C9.85868 11.3967 9.9075 11.4045 9.95338 11.4216Z" fill="#ED7F22"/>
<path d="M15.3531 12.0916L14.6729 12.4088L14.3556 11.7286L15.0359 11.4121C15.2165 11.3278 15.3562 11.1751 15.4243 10.9878C15.4923 10.8004 15.4832 10.5937 15.3989 10.4131C15.3145 10.2325 15.1619 10.0928 14.9745 10.0247C14.7872 9.95661 14.5805 9.96575 14.3999 10.0501L13.7204 10.3673L13.4039 9.68709L14.0834 9.37059C14.2584 9.28341 14.3925 9.13129 14.4571 8.94666C14.5216 8.76203 14.5114 8.55949 14.4288 8.38224C14.3461 8.20498 14.1975 8.06703 14.0146 7.99779C13.8317 7.92855 13.6289 7.9335 13.4496 8.01159L12.0899 8.64459C11.9097 8.72875 11.7703 8.88103 11.7023 9.06795C11.6344 9.25487 11.6435 9.46112 11.7276 9.64134L13.6304 13.7251C13.7145 13.9053 13.8668 14.0447 14.0537 14.1126C14.2406 14.1805 14.4469 14.1715 14.6271 14.0873L15.9869 13.4536C16.1675 13.3695 16.3073 13.2172 16.3756 13.0301C16.4439 12.8429 16.435 12.6363 16.351 12.4557C16.2669 12.2751 16.1146 12.1353 15.9275 12.067C15.7403 11.9987 15.5337 12.0075 15.3531 12.0916Z" fill="#ED7F22"/>
<path d="M18.75 10.5068L18.0705 10.824L17.7533 10.1438L18.4335 9.82729C18.5228 9.78563 18.603 9.72679 18.6696 9.65413C18.7361 9.58147 18.7877 9.49642 18.8214 9.40383C18.855 9.31124 18.8701 9.21292 18.8658 9.11449C18.8615 9.01606 18.8378 8.91945 18.7962 8.83016C18.7545 8.74088 18.6957 8.66068 18.623 8.59413C18.5504 8.52759 18.4653 8.47601 18.3727 8.44234C18.2801 8.40867 18.1818 8.39356 18.0834 8.39788C17.9849 8.40221 17.8883 8.42588 17.799 8.46754L17.1195 8.78479L16.8023 8.10454L17.4825 7.78804C17.6629 7.7039 17.8024 7.55157 17.8704 7.36458C17.9384 7.17758 17.9293 6.97123 17.8452 6.79091C17.761 6.6106 17.6087 6.47109 17.4217 6.40309C17.2347 6.33508 17.0284 6.34415 16.848 6.42829L15.4883 7.06204C15.3081 7.1462 15.1687 7.29848 15.1008 7.4854C15.0328 7.67232 15.0419 7.87857 15.126 8.05879L16.0785 10.1018L17.028 12.138C17.1122 12.3182 17.2645 12.4576 17.4514 12.5256C17.6383 12.5935 17.8446 12.5844 18.0248 12.5003L19.3845 11.8658C19.5617 11.7798 19.6979 11.6275 19.7637 11.4419C19.8296 11.2563 19.8198 11.0523 19.7365 10.8739C19.6532 10.6954 19.503 10.5569 19.3185 10.4882C19.1339 10.4196 18.9297 10.4262 18.75 10.5068Z" fill="#ED7F22"/>
</g>
<defs>
<clipPath id="clip0_182551_13110">
<rect width="24" height="24" fill="white"/>
</clipPath>
</defs>
</svg>
